{"title":"Sleepy Hollow S03E18 Ragnarok 1080P WEB-DL DD5 1 H 264","uid":14257110,"size":1786347070,"categoryP":"video","categoryS":"hd___tv_shows","magnet":"?xt=urn:btih:85a105e8b1f74398f1c4cdba6a3a3cd7742e3df1&amp;dn=Sleepy+Hollow+S03E18+Ragnarok+1080P+WEB-DL+DD5+1+H+264&amp;tr=udp%3A%2F%2Ftracker.leechers-paradise.org%3A6969&amp;tr=udp%3A%2F%2Fzer0day.ch%3A1337&amp;tr=udp%3A%2F%2Fopen.demonii.com%3A1337&amp;tr=udp%3A%2F%2Ftracker.coppersurfer.tk%3A6969&amp;tr=udp%3A%2F%2Fexodus.desync.com%3A6969","seeders":4,"leechers":1,"uploader":"jmanwf","files":1,"time":1460200628,"description":"Description\r\nAfter a startling discovery, Abbie and Crane realize what they must do in order to make Pandora’s box complete again. Meanwhile, the team works tirelessly to stop The Hidden One, before he destroys all of humanity. Can the Witnesses succeed with the fate of the world in their hands once again?\r\n\r\nVideo\r\nID : 2\r\nFormat : AVC\r\nFormat/Info : Advanced Video Codec\r\nFormat profile :   \r\nFormat settings, CABAC : Yes\r\nFormat settings, ReFrames : 4 frames\r\nCodec ID : avc1\r\nCodec ID/Info : Advanced Video Coding\r\nDuration : 44mn 17s\r\nBit rate : 4 865 Kbps\r\nWidth : 1 920 pixels\r\nHeight : 1 080 pixels\r\nDisplay aspect ratio : 16:9\r\nFrame rate mode : Constant\r\nFrame rate : 23.976 (24000/1001) fps\r\nColor space : YUV\r\nChroma subsampling : 4:2:0\r\nBit depth : 8 bits\r\nScan type : Progressive\r\nBits/(Pixel*Frame) : 0.098\r\nStream size : 1.51 GiB (90%)\r\nLanguage : English\r\nEncoded date : UTC 2016-04-09 08:15:40\r\nTagged date : UTC 2016-04-09 08:20:03\r\nColor range : Limited\r\nColor primaries : BT.709\r\nTransfer characteristics : BT.709\r\nMatrix coefficients : BT.709\r\n\r\nAudio #1\r\nID : 1\r\nFormat : AAC\r\nFormat/Info : Advanced Audio Codec\r\nFormat profile : LC\r\nCodec ID : 40\r\nDuration : 44mn 17s\r\nBit rate mode : Variable\r\nBit rate : 126 Kbps\r\nMaximum bit rate : 215 Kbps\r\nChannel(s) : 2 channels\r\nChannel positions : Front: L R\r\nSampling rate : 48.0 KHz\r\nFrame rate : 46.875 fps (1024 spf)\r\nCompression mode : Lossy\r\nStream size : 39.9 MiB (2%)\r\nLanguage : English\r\nDefault : Yes\r\nAlternate group : 1\r\nEncoded date : UTC 2016-04-09 08:15:40\r\nTagged date : UTC 2016-04-09 08:20:03\r\n\r\nAudio #2\r\nID : 3\r\nFormat : AC-3\r\nFormat/Info : Audio Coding 3\r\nMode extension : CM (complete main)\r\nFormat settings, Endianness : Big\r\nCodec ID : ac-3\r\nDuration : 44mn 17s\r\nBit rate mode : Constant\r\nBit rate : 384 Kbps\r\nChannel(s) : 6 channels\r\nChannel positions : Front: L C R, Side: L R, LFE\r\nSampling rate : 48.0 KHz\r\nFrame rate : 31.250 fps (1536 spf)\r\nBit depth : 16 bits\r\nCompression mode : Lossy\r\nStream size : 122 MiB (7%)\r\nLanguage : English\r\nDefault : No\r\nAlternate group : 1\r\nEncoded date : UTC 2016-04-09 08:15:40\r\nTagged date : UTC 2016-04-09 08:20:03\r\n\r\nText\r\nID : 4-CC1\r\nFormat : EIA-608\r\nMuxing mode : Final Cut\r\nCodec ID : c608\r\nDuration : 44mn 15s\r\nBit rate mode : Constant\r\nStream size : 0.00 Byte (0%)\r\nLanguage : English\r\nForced : No\r\nEncoded date : UTC 2016-04-09 08:15:40\r\nTagged date : UTC 2016-04-09 08:15:47","torrent":{"xt":"urn:btih:85a105e8b1f74398f1c4cdba6a3a3cd7742e3df1","amp;dn":"Sleepy+Hollow+S03E18+Ragnarok+1080P+WEB-DL+DD5+1+H+264","amp;tr":["udp%3A%2F%2Ftracker.leechers-paradise.org%3A6969","udp%3A%2F%2Fzer0day.ch%3A1337","udp%3A%2F%2Fopen.demonii.com%3A1337","udp%3A%2F%2Ftracker.coppersurfer.tk%3A6969","udp%3A%2F%2Fexodus.desync.com%3A6969"],"infoHash":"85a105e8b1f74398f1c4cdba6a3a3cd7742e3df1","infoHashBuffer":{"type":"Buffer","data":[133,161,5,232,177,247,67,152,241,196,205,186,106,58,60,215,116,46,61,241]},"announce":[],"urlList":[]}}